<svg xmlns="http://www.w3.org/2000/svg" viewBox="0 0 400 600">
  <!-- 翠柳背景 -->
  <rect width="400" height="600" fill="#e8f5e9"/>
  <!-- 柳枝 -->
  <path d="M0 200 Q100 180 200 200 Q300 220 400 200" stroke="#4caf50" stroke-width="3" fill="none" opacity="0.3"/>
  <path d="M0 250 Q100 230 200 250 Q300 270 400 250" stroke="#66bb6a" stroke-width="3" fill="none" opacity="0.3"/>
  <!-- 黄鹂鸟 -->
  <ellipse cx="200" cy="280" rx="25" ry="18" fill="#ffd54f"/>
  <circle cx="190" cy="270" r="12" fill="#ffd54f"/>
  <circle cx="186" cy="268" r="2" fill="#333"/>
  <polygon points="202,270 215,265 202,275" fill="#ff9800"/>
  <path d="M185 285 Q160 300 150 320" stroke="#ffd54f" stroke-width="8" fill="none"/>
  <!-- 白鹭 -->
  <ellipse cx="280" cy="340" rx="20" ry="12" fill="#fff"/>
  <circle cx="275" cy="330" r="10" fill="#fff"/>
  <polygon points="285,330 300,325 285,335" fill="#ff9800"/>
  <path d="M270 345 Q280 380 290 370" stroke="#fff" stroke-width="3" fill="none"/>
  <path d="M275 345 Q260 390 280 400" stroke="#fff" stroke-width="3" fill="none"/>
  <!-- 西岭雪 -->
  <path d="M50 100 L100 150 L150 120 L200 160 L250 130 L300 170 L350 140 L400 180 L400 0 L50 0 Z" fill="#fff" opacity="0.7"/>
</svg>