<svg xmlns="http://www.w3.org/2000/svg" viewBox="0 0 400 600" preserveAspectRatio="xMidYMid slice">
  <!-- 夕阳 -->
  <circle cx="200" cy="120" r="60" fill="#f5a623" opacity="0.3"/>
  <circle cx="200" cy="120" r="45" fill="#f5a623" opacity="0.5"/>
  
  <!-- 远山层次 -->
  <path d="M0 280 Q80 200 150 250 Q200 220 280 260 Q350 200 400 240 L400 350 L0 350 Z" fill="#2d5a4d" opacity="0.15"/>
  <path d="M0 320 Q100 260 180 300 Q250 270 320 310 Q380 260 400 290 L400 380 L0 380 Z" fill="#1a4538" opacity="0.2"/>
  <path d="M0 380 Q120 320 200 360 Q280 330 350 370 Q400 340 400 360 L400 420 L0 420 Z" fill="#0d3325" opacity="0.25"/>
  
  <!-- 黄河流水 -->
  <path d="M0 420 Q80 400 150 430 Q220 410 280 440 Q350 420 400 450 L400 600 L0 600 Z" fill="#3a7ca5" opacity="0.2"/>
  <path d="M0 450 Q100 430 180 460 Q260 440 320 470 Q380 450 400 480 L400 600 L0 600 Z" fill="#2d6a8d" opacity="0.15"/>
  
  <!-- 飞鸟 (鹳雀) -->
  <g fill="none" stroke="#2c1810" stroke-width="1.5" opacity="0.6">
    <path d="M100 160 Q105 155 110 160 Q115 155 120 160"/>
    <path d="M130 180 Q135 175 140 180 Q145 175 150 180"/>
  </g>
</svg>