<svg xmlns="http://www.w3.org/2000/svg" viewBox="0 0 400 600">
  <rect width="400" height="600" fill="#e8f5e9"/>
  <!-- 草原 -->
  <ellipse cx="200" cy="350" rx="200" ry="180" fill="#81c784" opacity="0.25"/>
  <ellipse cx="200" cy="400" rx="180" ry="150" fill="#66bb6a" opacity="0.2"/>
  <!-- 野火 -->
  <path d="M120 320 Q140 250 160 320 Q180 230 200 300 Q220 200 240 300 Q260 230 280 320" fill="none" stroke="#ff5722" stroke-width="6" opacity="0.7"/>
  <path d="M140 340 Q160 290 180 340 Q200 270 220 340 Q240 280 260 340" fill="none" stroke="#ff9800" stroke-width="4" opacity="0.6"/>
  <!-- 新芽 -->
  <circle cx="100" cy="450" r="8" fill="#4caf50"/>
  <circle cx="180" cy="460" r="6" fill="#66bb6a"/>
  <circle cx="260" cy="455" r="7" fill="#4caf50"/>
  <circle cx="340" cy="465" r="5" fill="#66bb6a"/>
  <circle cx="150" cy="490" r="6" fill="#4caf50"/>
  <circle cx="250" cy="495" r="5" fill="#66bb6a"/>
</svg>
